# xmcd CD database file
#
# Track frame offsets:
#	150
#	19030
#	35107
#	52125
#	70917
#	87062
#	104307
#	121872
#	138325
#	155725
#	175190
#	191992
#	206505
#	223915
#	240595
#	257582
#	274990
#	289745
#	307362
#
# Disc length: 4337 seconds
#
# Revision: 2
# Processed by: cddbd v1.5.1PL2 Copyright (c) Steve Scherf et al.
# Submitted via: CDex 1.51
#
DISCID=2a10ef13
DTITLE=Various Artist - The Best Of New Age 3
DYEAR=1996
DGENRE=New Age
TTITLE0=Medwyn Goodall - The Grail (Part 2)
TTITLE1=Hildegard Von Bingen - O Successores
TTITLE2=Emerald Project - Meeting Of Friends
TTITLE3=David Pickvance - Beneath The Tempest
TTITLE4=Aeoliah - Chintamanti: The Treasure
TTITLE5=Daniel Hobialka - Over The Hills
TTITLE6=Mike Rowland - When The Day Begins
TTITLE7=Schawkie Roth - Folk Song 'Turtle Dove'
TTITLE8=Goomer Edwin Evans - Movements
TTITLE9=Christa Mitchell - Intermezzo - Bizet
TTITLE10=Hans Visser - Anna: Nocturne Opus 27 Nr. 1
TTITLE11=Nawang Khechog - Kindness As The Key
TTITLE12=Hans Visser - C3: Sarabande E Minor From Lute Suite 1
TTITLE13=Jean Pierre Labreche - Yi-King
TTITLE14=Mike Rowland - Son Of The Light
TTITLE15=Henri Seroka - Atlantis
TTITLE16=Simon Cooper - In Search Of Iseult
TTITLE17=Hariprasad Chaurasia - Raga Bhoopali
TTITLE18=Smiles - Indaba
EXTD=YEAR: 1996
EXTT0=
EXTT1=
EXTT2=
EXTT3=
EXTT4=
EXTT5=
EXTT6=
EXTT7=
EXTT8=
EXTT9=
EXTT10=
EXTT11=
EXTT12=
EXTT13=
EXTT14=
EXTT15=
EXTT16=
EXTT17=
EXTT18=
PLAYORDER=
